<svg version="1.2" xmlns="http://www.w3.org/2000/svg" viewBox="0 0 2020 369" width="2020" height="369">
	<defs>
		<clipPath clipPathUnits="userSpaceOnUse" id="cp1">
			<path d="m-295-1219h2480v3508h-2480z"/>
		</clipPath>
	</defs>
	<style>
		.s0 { fill: #8d0f27 } 
	</style>
	<g id="Clip-Path: Page 1" clip-path="url(#cp1)">
		<g id="Page 1">
			<g id="Group 1">
				<path id="Object 4 copy" fill-rule="evenodd" class="s0" d="m54.14 0.12h130.97v52.61h-52.6v51.71h52.6v153.96c0 30.95 25.33 56.27 56.27 56.27h127.71v0.4c0 29.48-24.16 53.64-53.64 53.64h-261.31c-29.48 0-53.64-24.14-53.64-53.64v-261.31c0-29.5 24.14-53.64 53.64-53.64zm183.31 0h78c29.16 0 53.07 23.6 53.62 52.61h-131.62zm131.64 104.31v157.9h-101.02c-16.84 0-30.62-13.78-30.62-30.62v-127.28zm1590.08-104.31q15.21 0 29.72 7.79 14.5 7.83 22.59 22.37 8.09 14.53 8.1 30.33 0 15.63-7.99 30.02-7.97 14.44-22.34 22.4-14.38 7.99-30.08 7.99-15.72 0-30.08-7.99-14.4-7.96-22.4-22.4-8.02-14.39-8.01-30.02 0-15.8 8.12-30.33 8.12-14.55 22.64-22.37 14.5-7.79 29.73-7.79zm0 10.01q-12.75 0.01-24.8 6.53-12.06 6.54-18.87 18.65-6.81 12.14-6.81 25.3 0.01 13.04 6.7 25.02 6.68 11.99 18.7 18.68 12.01 6.69 25.08 6.7 13.05-0.01 25.08-6.7 12.01-6.69 18.65-18.68 6.64-11.98 6.64-25.02 0.01-13.16-6.75-25.3-6.77-12.11-18.87-18.65-12.11-6.52-24.75-6.53zm-26.53 83.87v-65.03h22.34q11.48-0.01 16.6 1.78 5.12 1.81 8.18 6.29 3.04 4.5 3.04 9.54 0 7.13-5.09 12.42-5.09 5.28-13.51 5.93 3.46 1.43 5.52 3.45 3.94 3.84 9.63 12.9l7.93 12.72h-12.82l-5.77-10.26q-6.8-12.07-10.97-15.12-2.88-2.25-8.42-2.24h-6.16v27.62zm10.51-36.59h12.74q9.11-0.01 12.44-2.74 3.33-2.7 3.34-7.21-0.01-2.88-1.62-5.17-1.6-2.27-4.43-3.39c-1.91-0.77-5.41-1.12-10.55-1.12h-11.92zm-1546.69 200.98v-44.7c0-30.94 25.32-56.27 56.27-56.27h157.78v52.57q-1.84-0.23-3.74-0.23h-127.36c-38.25 0-38.25 52.59 0 52.57l129.99-0.09q-0.14 2.05-0.14 4.15c0 19.52 9.16 36.98 23.42 48.27-56.87 0-128.15 0-179.95 0-30.95 0-56.27-25.32-56.27-56.27zm1.09-205.67h234.38c30.95 0 56.28 25.32 56.28 56.27v48.43h0.02v74.83c0 16.88 13.82 30.71 30.71 30.71h39.74q-0.1 1.7-0.1 3.43c0 19.53 9.17 36.98 23.42 48.27h-89.2c-30.95 0-56.28-25.32-56.28-56.27v-48.43h-0.03v-74.83c0-16.88-13.81-30.7-30.7-30.7h-208.24zm1197.65 261.95v-179c0-16.84-13.79-30.62-30.63-30.62h-93.73c-16.84 0-30.62 13.78-30.62 30.62v178.86c-29.14-2.04-52.34-26.51-52.34-56.14v-149.4c0-30.95 25.32-56.27 56.27-56.27h137.68c11.06 0 34.95 11 39.57 27.66 3.7-16.69 28.5-27.66 39.56-27.66h137.68c30.95 0 56.27 25.32 56.27 56.27v205.68h-52.33v-179c0-16.84-13.79-30.62-30.63-30.62h-93.73c-16.84 0-30.62 13.78-30.62 30.62v178.86q-0.03-0.01-0.07-0.01v0.15zm-972.93-12.01q-0.17-0.27-0.33-0.54zm-0.44-0.72l0.12 0.19q-0.06-0.09-0.12-0.19zm1.56 2.48q-0.32-0.48-0.63-0.97zm214.88-304.31v231.6c0 16.83 13.78 30.62 30.62 30.62h101.19q-0.14 2.01-0.14 4.06c0 19.53 9.17 36.98 23.42 48.27h-151.15c-30.95 0-56.28-25.32-56.28-56.27v-258.28zm159.01 258.28v-149.4c0-30.95 25.33-56.27 56.27-56.27h180.73c30.95 0 56.27 25.32 56.27 56.27v100.84h-214.82v-52.41h162.48v-21.75c0-16.84-13.78-30.62-30.62-30.62h-127.35c-16.84 0-30.62 13.78-30.62 30.62v96.04c0 16.84 13.78 30.62 30.62 30.62 43.83 0 176.27 0 280.45 0q-0.13 2.01-0.13 4.06c0 19.52 9.16 36.98 23.41 48.27h-330.42c-30.95 0-56.27-25.32-56.27-56.27z"/>
				<path id="Object 4 copy 2" fill-rule="evenodd" class="s0" d="m54.14 0.12h130.97v52.61h-52.6v51.71h52.6v153.96c0 30.95 25.33 56.27 56.27 56.27h127.71v0.4c0 29.48-24.16 53.64-53.64 53.64h-261.31c-29.48 0-53.64-24.14-53.64-53.64v-261.31c0-29.5 24.14-53.64 53.64-53.64zm183.31 0h78c29.16 0 53.07 23.6 53.62 52.61h-131.62zm131.64 104.31v157.9h-101.02c-16.84 0-30.62-13.78-30.62-30.62v-127.28zm1590.08-104.31q15.21 0 29.72 7.79 14.5 7.83 22.59 22.37 8.09 14.53 8.1 30.33 0 15.63-7.99 30.02-7.97 14.44-22.34 22.4-14.38 7.99-30.08 7.99-15.72 0-30.08-7.99-14.4-7.96-22.4-22.4-8.02-14.39-8.01-30.02 0-15.8 8.12-30.33 8.12-14.55 22.64-22.37 14.5-7.79 29.73-7.79zm0 10.01q-12.75 0.01-24.8 6.53-12.06 6.54-18.87 18.65-6.81 12.14-6.81 25.3 0.01 13.04 6.7 25.02 6.68 11.99 18.7 18.68 12.01 6.69 25.08 6.7 13.05-0.01 25.08-6.7 12.01-6.69 18.65-18.68 6.64-11.98 6.64-25.02 0.01-13.16-6.75-25.3-6.77-12.11-18.87-18.65-12.11-6.52-24.75-6.53zm-26.53 83.87v-65.03h22.34q11.48-0.01 16.6 1.78 5.12 1.81 8.18 6.29 3.04 4.5 3.04 9.54 0 7.13-5.09 12.42-5.09 5.28-13.51 5.93 3.46 1.43 5.52 3.45 3.94 3.84 9.63 12.9l7.93 12.72h-12.82l-5.77-10.26q-6.8-12.07-10.97-15.12-2.88-2.25-8.42-2.24h-6.16v27.62zm10.51-36.59h12.74q9.11-0.01 12.44-2.74 3.33-2.7 3.34-7.21-0.01-2.88-1.62-5.17-1.6-2.27-4.43-3.39c-1.91-0.77-5.41-1.12-10.55-1.12h-11.92zm-1546.69 200.98v-44.7c0-30.94 25.32-56.27 56.27-56.27h157.78v52.57q-1.84-0.23-3.74-0.23h-127.36c-38.25 0-38.25 52.59 0 52.57l129.99-0.09q-0.14 2.05-0.14 4.15c0 19.52 9.16 36.98 23.42 48.27-56.87 0-128.15 0-179.95 0-30.95 0-56.27-25.32-56.27-56.27zm1.09-205.67h234.38c30.95 0 56.28 25.32 56.28 56.27v48.43h0.02v74.83c0 16.88 13.82 30.71 30.71 30.71h39.74q-0.1 1.7-0.1 3.43c0 19.53 9.17 36.98 23.42 48.27h-89.2c-30.95 0-56.28-25.32-56.28-56.27v-48.43h-0.03v-74.83c0-16.88-13.81-30.7-30.7-30.7h-208.24zm1197.65 261.95v-179c0-16.84-13.79-30.62-30.63-30.62h-93.73c-16.84 0-30.62 13.78-30.62 30.62v178.86c-29.14-2.04-52.34-26.51-52.34-56.14v-149.4c0-30.95 25.32-56.27 56.27-56.27h137.68c11.06 0 34.95 11 39.57 27.66 3.7-16.69 28.5-27.66 39.56-27.66h137.68c30.95 0 56.27 25.32 56.27 56.27v205.68h-52.33v-179c0-16.84-13.79-30.62-30.63-30.62h-93.73c-16.84 0-30.62 13.78-30.62 30.62v178.86q-0.03-0.01-0.07-0.01v0.15zm-972.93-12.01q-0.17-0.27-0.33-0.54zm-0.44-0.72l0.12 0.19q-0.06-0.09-0.12-0.19zm1.56 2.48q-0.32-0.48-0.63-0.97zm214.88-304.31v231.6c0 16.83 13.78 30.62 30.62 30.62h101.19q-0.14 2.01-0.14 4.06c0 19.53 9.17 36.98 23.42 48.27h-151.15c-30.95 0-56.28-25.32-56.28-56.27v-258.28zm159.01 258.28v-149.4c0-30.95 25.33-56.27 56.27-56.27h180.73c30.95 0 56.27 25.32 56.27 56.27v100.84h-214.82v-52.41h162.48v-21.75c0-16.84-13.78-30.62-30.62-30.62h-127.35c-16.84 0-30.62 13.78-30.62 30.62v96.04c0 16.84 13.78 30.62 30.62 30.62 43.83 0 176.27 0 280.45 0q-0.13 2.01-0.13 4.06c0 19.52 9.16 36.98 23.41 48.27h-330.42c-30.95 0-56.27-25.32-56.27-56.27z"/>
			</g>
		</g>
	</g>
</svg>